<svg width="279" height="167" viewBox="0 0 279 167" fill="none" xmlns="http://www.w3.org/2000/svg">
    <path opacity=".2" d="M29.924 31v-7.824h1.764v6.336h3.096V31h-4.86zm6.21 0v-7.824H37.9V31h-1.764zm3.61 0v-7.824h1.764v3.204h.048l2.328-3.204h1.944l-2.364 3.12L46.26 31h-1.932l-1.908-3.3-.912 1.2V31h-1.764zm7.371 0v-7.824h4.896v1.488H48.88v1.572h2.664v1.476H48.88v1.8h3.252V31h-5.016zm8.977 0v-7.824h2.82c.416 0 .804.04 1.164.12.368.08.688.216.96.408.272.184.488.432.648.744.16.312.24.7.24 1.164 0 .576-.128 1.052-.384 1.428a2.281 2.281 0 0 1-1.008.828L62.308 31h-1.98l-1.5-2.82h-.972V31h-1.764zm1.764-4.224h.912c.464 0 .816-.096 1.056-.288.248-.2.372-.492.372-.876s-.124-.652-.372-.804c-.24-.152-.592-.228-1.056-.228h-.912v2.196zm7.338.264-.192.72h1.668l-.18-.72c-.112-.392-.22-.808-.324-1.248-.104-.44-.208-.864-.312-1.272h-.048c-.096.416-.196.844-.3 1.284-.096.432-.2.844-.312 1.236zM62.362 31l2.448-7.824h2.124L69.382 31H67.51l-.48-1.86h-2.388l-.48 1.86h-1.8zm8.52 0v-6.336h-2.148v-1.488h6.072v1.488h-2.148V31h-1.776zm5.144 0v-7.824h4.896v1.488H77.79v1.572h2.664v1.476H77.79v1.8h3.252V31h-5.016z" fill="#fff"/>
    <path d="m101.048 30.53-3.817-3.817 3.817-3.816M104.865 35.617l3.816-3.816-3.816-3.816" stroke="#37346F" stroke-width="2"/>
    <g filter="url(#a)">
        <ellipse cx="223.511" cy="99.558" rx="14.681" ry="12.721" transform="rotate(29 223.511 99.558)" fill="url(#b)"/>
    </g>
    <g filter="url(#c)">
        <path d="M223.525 103.043c-21.626 40.708-39.436 0-50.885 10.813-15.551 14.687-19.596-10.813-31.803-10.813-12.208 0-15.266 25.443-30.531 25.443-18.367 0-14.55-20.354-27.987-20.354-7.018 0-11.45 20.354-25.443 20.354-13.993 0-10.177-29.26-29.259-29.26" stroke="url(#d)" stroke-width="3" stroke-linecap="round" stroke-linejoin="round"/>
    </g>
    <path opacity=".7" d="M31.594 69.906c-.43 0-.827-.046-1.19-.136a4.868 4.868 0 0 1-.969-.323 5.253 5.253 0 0 1-.782-.46 5.905 5.905 0 0 1-.612-.56l.68-.918a5.1 5.1 0 0 0 1.122.867c.442.249.98.374 1.615.374.329 0 .635-.057.918-.17.295-.125.55-.295.765-.51a2.34 2.34 0 0 0 .51-.782 2.68 2.68 0 0 0 .187-1.02c0-.748-.21-1.332-.629-1.751-.42-.42-.98-.63-1.683-.63a2.51 2.51 0 0 0-.969.17c-.26.114-.555.278-.884.494l-.748-.476.357-5.22h5.423v1.208h-4.199l-.289 3.213c.26-.136.521-.244.782-.323.26-.08.556-.12.884-.12.465 0 .901.069 1.31.205a2.91 2.91 0 0 1 1.07.629c.306.272.544.623.714 1.054.181.419.272.923.272 1.513 0 .589-.102 1.11-.306 1.564a3.557 3.557 0 0 1-.816 1.156c-.34.306-.73.544-1.173.714-.43.158-.884.238-1.36.238zm6.597 0c-.283 0-.527-.097-.73-.29a1.07 1.07 0 0 1-.29-.764c0-.329.097-.59.29-.782a.998.998 0 0 1 .73-.306c.272 0 .505.102.697.306.204.192.306.453.306.782 0 .306-.102.56-.306.765a.95.95 0 0 1-.697.289zm6.12 0c-.43 0-.827-.046-1.19-.136a4.868 4.868 0 0 1-.968-.323 5.02 5.02 0 0 1-.8-.493 4.97 4.97 0 0 1-.611-.578l.714-.918c.328.34.708.64 1.139.9.442.261.986.392 1.632.392.657 0 1.196-.176 1.615-.527.42-.363.629-.85.629-1.462 0-.318-.063-.607-.187-.867a1.612 1.612 0 0 0-.578-.697c-.272-.193-.63-.34-1.071-.442-.442-.102-.986-.153-1.632-.153V63.53c.578 0 1.06-.051 1.445-.153.396-.102.714-.244.952-.425.25-.182.425-.397.527-.646a2.09 2.09 0 0 0 .153-.8c0-.532-.17-.951-.51-1.257-.329-.306-.782-.46-1.36-.46-.453 0-.873.103-1.258.307-.374.204-.725.47-1.054.799l-.748-.884c.42-.397.878-.72 1.377-.97.51-.26 1.088-.39 1.734-.39.476 0 .912.062 1.309.187a2.93 2.93 0 0 1 1.02.544c.294.226.521.51.68.85.158.34.238.73.238 1.173 0 .657-.181 1.195-.544 1.615-.363.419-.839.742-1.428.969v.068c.328.079.634.198.918.357.283.147.532.34.748.578.215.226.38.493.493.799.124.306.187.646.187 1.02 0 .476-.096.906-.29 1.292a2.827 2.827 0 0 1-.764.986 3.57 3.57 0 0 1-1.122.612c-.43.136-.896.204-1.394.204zm8.995 0a3.403 3.403 0 0 1-1.479-.323 3.336 3.336 0 0 1-1.19-.97c-.329-.441-.59-.985-.782-1.631-.193-.658-.289-1.423-.289-2.295 0-1.088.113-2.012.34-2.771.227-.771.533-1.394.918-1.87.385-.488.822-.839 1.309-1.054a3.737 3.737 0 0 1 1.564-.34c.59 0 1.094.113 1.513.34.43.215.799.487 1.105.816l-.782.867a2.418 2.418 0 0 0-.816-.612 2.076 2.076 0 0 0-.969-.238c-.374 0-.731.079-1.071.238-.34.158-.64.419-.901.782-.26.362-.47.838-.629 1.428-.159.578-.244 1.297-.255 2.159.34-.42.737-.748 1.19-.986.453-.25.901-.374 1.343-.374.94 0 1.689.277 2.244.833.567.555.85 1.394.85 2.516 0 .521-.085.997-.255 1.428a3.38 3.38 0 0 1-.697 1.088 3.194 3.194 0 0 1-1.02.714 3.04 3.04 0 0 1-1.241.255zm0-1.105c.272 0 .521-.057.748-.17.227-.114.425-.272.595-.476.17-.216.3-.465.391-.748a3 3 0 0 0 .153-.986c0-.714-.164-1.275-.493-1.683-.329-.408-.833-.612-1.513-.612-.351 0-.731.113-1.139.34-.408.215-.782.578-1.122 1.088.09 1.065.334 1.875.731 2.43.408.545.958.817 1.649.817zm7.022-3.417c-.77 0-1.388-.306-1.853-.918-.453-.612-.68-1.485-.68-2.618 0-1.122.227-1.984.68-2.584.465-.612 1.082-.918 1.853-.918.76 0 1.371.306 1.836.918.465.6.697 1.462.697 2.584 0 1.133-.232 2.006-.697 2.618-.465.612-1.077.918-1.836.918zm0-.867c.43 0 .782-.221 1.054-.663.272-.454.408-1.122.408-2.006 0-.884-.136-1.542-.408-1.972-.272-.442-.623-.663-1.054-.663-.442 0-.799.22-1.07.663-.273.43-.409 1.088-.409 1.972 0 .884.136 1.552.408 2.006.272.442.63.663 1.071.663zm.306 5.389 6.154-11.56h.952l-6.154 11.56h-.952zm7.463 0c-.77 0-1.388-.306-1.853-.918-.453-.612-.68-1.485-.68-2.618 0-1.122.227-1.984.68-2.584.465-.612 1.082-.918 1.853-.918.76 0 1.372.306 1.836.918.465.6.697 1.462.697 2.584 0 1.133-.232 2.006-.697 2.618-.465.612-1.077.918-1.836.918zm0-.867c.43 0 .782-.221 1.054-.663.272-.454.408-1.122.408-2.006 0-.884-.136-1.542-.408-1.972-.272-.442-.623-.663-1.054-.663-.442 0-.799.22-1.07.663-.273.43-.409 1.088-.409 1.972 0 .884.136 1.552.408 2.006.272.442.63.663 1.071.663z" fill="#fff"/>
    <path d="M194.125 29.47v-2.41h-.748v2.41h-2.398v.747h2.398v2.41h.748v-2.41h2.398v-.748h-2.398zm8.521-3.708v-.803h-5.049v.88h4.092a12.25 12.25 0 0 0-1.155 1.42 11.54 11.54 0 0 0-.935 1.638 11.205 11.205 0 0 0-.671 1.804 9.84 9.84 0 0 0-.319 1.925h1.045a9.683 9.683 0 0 1 .308-1.88c.168-.646.385-1.273.649-1.882.271-.608.579-1.18.924-1.716a7.967 7.967 0 0 1 1.111-1.386zm5.683.022v-.825h-3.85l-.726 4.048.803.044a2.24 2.24 0 0 1 .627-.528c.242-.14.517-.209.825-.209.264 0 .502.044.715.132.22.088.407.213.561.374.154.154.271.341.352.561.088.213.132.448.132.704 0 .308-.044.58-.132.814a1.626 1.626 0 0 1-.363.572 1.457 1.457 0 0 1-.528.352 1.79 1.79 0 0 1-.627.11 2.04 2.04 0 0 1-.649-.099 1.735 1.735 0 0 1-.506-.297 1.708 1.708 0 0 1-.341-.45 1.623 1.623 0 0 1-.143-.562h-.935c.007.352.077.668.209.946.132.279.312.514.539.704.227.184.488.327.781.43.301.095.62.142.957.142.455 0 .851-.07 1.188-.209.345-.146.631-.34.858-.583a2.35 2.35 0 0 0 .506-.825c.117-.315.176-.638.176-.968 0-.447-.066-.836-.198-1.166a2.324 2.324 0 0 0-.539-.836 2.135 2.135 0 0 0-.803-.506 2.887 2.887 0 0 0-.979-.165c-.264 0-.532.048-.803.143-.264.088-.48.228-.649.418l-.022-.022.418-2.244h3.146zm1.855 5.621v1.221h1.221v-1.22h-1.221zm6.703-4.587h.935c-.059-.645-.279-1.136-.66-1.474-.382-.344-.895-.517-1.54-.517-.558 0-1.02.118-1.386.352-.367.235-.66.547-.88.935-.22.389-.378.836-.473 1.342a8.912 8.912 0 0 0-.132 1.551c0 .41.029.836.088 1.276.066.44.194.844.385 1.21.19.367.462.668.814.902.352.235.817.352 1.397.352.491 0 .902-.08 1.232-.242.337-.168.605-.377.803-.627.205-.256.352-.539.44-.847a3.24 3.24 0 0 0 .132-.89c0-.36-.055-.694-.165-1.002a2.38 2.38 0 0 0-.473-.803 1.985 1.985 0 0 0-.748-.528 2.417 2.417 0 0 0-1.001-.198c-.426 0-.803.08-1.133.242-.323.162-.594.422-.814.781l-.022-.022c.007-.3.036-.623.088-.968.051-.344.143-.663.275-.957.139-.3.33-.546.572-.737.242-.198.561-.297.957-.297.374 0 .674.107.902.32.227.212.363.494.407.846zm-1.408 1.617c.264 0 .495.048.693.143a1.434 1.434 0 0 1 .781.946c.066.213.099.44.099.682 0 .228-.037.448-.11.66a1.663 1.663 0 0 1-.297.55c-.132.162-.297.29-.495.385a1.59 1.59 0 0 1-.671.132 1.74 1.74 0 0 1-.693-.132 1.62 1.62 0 0 1-.506-.374 1.666 1.666 0 0 1-.308-.55 2.289 2.289 0 0 1-.011-1.364 1.544 1.544 0 0 1 1.518-1.078zm4.44 2.31h-.935c.059.675.304 1.177.737 1.507.433.33.975.495 1.628.495.946 0 1.632-.36 2.057-1.078.433-.726.649-1.763.649-3.113 0-.74-.073-1.35-.22-1.826-.139-.484-.33-.865-.572-1.144a1.94 1.94 0 0 0-.847-.583 3.003 3.003 0 0 0-1.034-.176c-.374 0-.719.063-1.034.187-.315.125-.587.3-.814.528-.227.22-.403.488-.528.803a2.697 2.697 0 0 0-.187 1.023c0 .382.051.734.154 1.056.11.323.268.598.473.825.213.228.473.407.781.54.308.124.66.186 1.056.186a2.04 2.04 0 0 0 1.056-.286 2.04 2.04 0 0 0 .748-.792l.022.022c-.029 1.02-.187 1.779-.473 2.277-.286.492-.715.737-1.287.737-.374 0-.697-.102-.968-.308-.271-.205-.425-.498-.462-.88zm3.025-3.31c0 .227-.037.447-.11.66-.073.205-.18.388-.319.55a1.62 1.62 0 0 1-.506.373 1.607 1.607 0 0 1-.66.132 1.48 1.48 0 0 1-.627-.132 1.714 1.714 0 0 1-.484-.374 1.922 1.922 0 0 1-.319-.528 1.767 1.767 0 0 1-.11-.616c0-.242.026-.473.077-.693.059-.22.147-.414.264-.583.125-.176.282-.315.473-.418.198-.102.436-.154.715-.154.264 0 .495.048.693.143.198.096.363.228.495.396.139.162.242.349.308.561.073.213.11.44.11.682zm3.45-.397c0-.168.011-.344.033-.528.022-.19.066-.363.132-.517a1.1 1.1 0 0 1 .297-.396.722.722 0 0 1 .495-.165c.213 0 .378.055.495.165.125.103.22.235.286.396.066.154.107.327.121.517a4.353 4.353 0 0 1 0 1.056c-.022.19-.069.367-.143.528a.997.997 0 0 1-.286.385c-.124.103-.293.154-.506.154-.205 0-.37-.051-.495-.154a1.17 1.17 0 0 1-.275-.396 1.982 1.982 0 0 1-.132-.517 7.278 7.278 0 0 1-.022-.528zm-.825.022c0 .3.03.583.088.847.066.264.169.495.308.693.14.198.323.356.55.473.228.11.506.165.836.165.323 0 .594-.062.814-.187.22-.124.4-.286.539-.484.147-.205.25-.44.308-.704a3.879 3.879 0 0 0 .011-1.683 1.768 1.768 0 0 0-.286-.704 1.406 1.406 0 0 0-.539-.473c-.22-.117-.502-.176-.847-.176-.337 0-.619.063-.847.187-.227.118-.41.279-.55.484a2.032 2.032 0 0 0-.297.715 3.94 3.94 0 0 0-.088.847zm6.259 3.498c0-.168.011-.344.033-.528.022-.19.066-.363.132-.517a1.1 1.1 0 0 1 .297-.396.722.722 0 0 1 .495-.165c.213 0 .378.055.495.165.125.103.22.235.286.396.066.154.107.327.121.517a4.353 4.353 0 0 1 0 1.056c-.022.19-.069.367-.143.528a.997.997 0 0 1-.286.385c-.124.103-.293.154-.506.154-.205 0-.37-.051-.495-.154a1.17 1.17 0 0 1-.275-.396 1.982 1.982 0 0 1-.132-.517 7.278 7.278 0 0 1-.022-.528zm-.825.022c0 .3.03.583.088.847.066.264.169.495.308.693.14.19.323.345.55.462.228.11.506.165.836.165.323 0 .594-.058.814-.176.22-.124.4-.286.539-.484.147-.205.25-.44.308-.704a3.879 3.879 0 0 0 .011-1.683 1.768 1.768 0 0 0-.286-.704 1.406 1.406 0 0 0-.539-.473c-.22-.117-.502-.176-.847-.176-.337 0-.619.063-.847.187-.227.118-.41.279-.55.484a2.032 2.032 0 0 0-.297.715 3.94 3.94 0 0 0-.088.847zm1.54-5.896-5.918 8.173h.946l5.907-8.173h-.935zM181.552 30.03l-.964 1.156c-.355.426-.93.426-1.285 0-.355-.426-.355-1.116 0-1.542l.964-1.156-2.538-3.046h6.361v7.633l-2.538-3.045z" fill="#50E3C2"/>
    <defs>
        <linearGradient id="b" x1="224.881" y1="119.464" x2="239.411" y2="105.011" gradientUnits="userSpaceOnUse">
            <stop stop-color="#FFBD3D" stop-opacity=".01"/>
            <stop offset="1" stop-color="#FFCE5A"/>
        </linearGradient>
        <linearGradient id="d" x1="223.004" y1="140.184" x2="33.079" y2="140.184" gradientUnits="userSpaceOnUse">
            <stop stop-color="#FFAD57"/>
            <stop offset=".771" stop-color="#EAFF00" stop-opacity=".466"/>
            <stop offset="1" stop-color="#FF8502" stop-opacity=".01"/>
        </linearGradient>
        <filter id="a" x="168.14" y="45.225" width="110.742" height="108.666" filterUnits="userSpaceOnUse" color-interpolation-filters="sRGB">
            <feFlood flood-opacity="0" result="BackgroundImageFix"/>
            <feBlend in="SourceGraphic" in2="BackgroundImageFix" result="shape"/>
            <feGaussianBlur stdDeviation="20.562" result="effect1_foregroundBlur_27_537"/>
        </filter>
        <filter id="c" x="16.117" y="97.727" width="218.908" height="52.259" filterUnits="userSpaceOnUse" color-interpolation-filters="sRGB">
            <feFlood flood-opacity="0" result="BackgroundImageFix"/>
            <feColorMatrix in="SourceAlpha" values="0 0 0 0 0 0 0 0 0 0 0 0 0 0 0 0 0 0 127 0" result="hardAlpha"/>
            <feOffset dy="10"/>
            <feGaussianBlur stdDeviation="5"/>
            <feColorMatrix values="0 0 0 0 0.0456816 0 0 0 0 0.0410428 0 0 0 0 0.12686 0 0 0 0.54362 0"/>
            <feBlend in2="BackgroundImageFix" result="effect1_dropShadow_27_537"/>
            <feBlend in="SourceGraphic" in2="effect1_dropShadow_27_537" result="shape"/>
        </filter>
    </defs>
</svg>
