<svg width="24" height="24" viewBox="0 0 24 24" fill="none" xmlns="http://www.w3.org/2000/svg">
    <path d="M14.555 8.193c-.325-.648-.437-1.509.623-2.175 1.755-1.1 2.64-2.922 2.015-4.146C16.83 1.159 16.212.75 15.495.75c-.728 0-1.455.417-2.047 1.177-1.035 1.328-2.118 2.267-3.166 3.176C9.234 6.012 8.244 6.87 7.52 7.97c-.794 1.206-1.887 3.143-2.41 4.546-.851 2.284.785 4.981 2.286 5.835l.016.01.017.007c1.308.634 2.785 1.362 3.036 1.506.864.763 3.045 2.846 3.066 2.867l.011.01.012.01c.373.32.81.488 1.263.488.784 0 1.529-.52 1.813-1.266.272-.716.064-1.46-.555-1.99l-1.586-1.419c.331-.11.616-.328.81-.618.194-.288.297-.637.302-.998l.147-.014c.892-.087 1.524-.7 1.666-1.553.594-.067 1.08-.372 1.376-.863.217-.312.33-.684.336-1.104.017-1.237-.49-2.946-4.57-5.232zm4.022 5.224c-.006.337-.105.662-.25.823-.137.152-.437.282-.762.314l-2.156.201c-.449.047-.707-.06-1.027-.3l-1.668-1.361c-.615-.497-.592-1.212-.256-1.76a1.73 1.73 0 0 0-.4.662 3.525 3.525 0 0 1-3.34-.12 3.263 3.263 0 0 1-.352-.243c.228.356.537.652.9.867a2.802 2.802 0 0 0 2.73.054c.032.303.178.599.48.842l1.668 1.36c.32.242.578.348 1.027.302l1.72-.158c.021.306-.047.611-.196.88-.19.173-.444.294-.766.326l-2.156.201c-.449.046-.707-.059-1.026-.3l-1.67-1.362c-.614-.496-.59-1.211-.255-1.76-.538.559-.72 1.467.017 2.062l1.67 1.36c.32.243.574.437 1.027.408l1.46-.096c.116.262.07.643-.116.97-.164.148-.38.252-.656.279l-1.844.048c-.386.01-.733-.143-1.007-.35l-1.304-.949c-.525-.425-.506-1.038-.219-1.507-.46.478-.697 1.286-.066 1.795l1.417 1.059c.273.207.586.326.972.334l1.218.024 2.323 2.08c.024.02.042.042.064.063 1.036 1.084-.614 2.772-1.819 1.544-.949-.965-1.866-1.98-3.692-3.098a60.931 60.931 0 0 0-2.154-1.25c-1.306-.743-2.726-2.969-1.987-4.953.5-1.34 1.51-3.159 2.303-4.363 1.367-2.077 3.741-3.399 5.878-6.14.305-.39.908-1.014 1.596-.845.33.082.602.364.8.754.484.947-.289 2.49-1.82 3.45-1.414.887-1.227 2.155-.738 3.02 4.13 2.282 4.445 3.894 4.432 4.833" fill="#000"/>
    <path d="M15.676 11.793s-1.456-1.48-2.761-.8c1.381-.305 2.745 1.563 2.745 1.563s.519-.558 1.345-.494c-.606-.32-1.33-.269-1.33-.269" fill="#000"/>
</svg>
