<svg width="30" height="33" viewBox="0 0 30 33" fill="none" xmlns="http://www.w3.org/2000/svg">
    <g clip-path="url(#a)">
        <path d="M5.976 26.124c0-.804.652-1.455 1.456-1.455h15.961c.805 0 1.457.651 1.457 1.455v3.726c0 .804-.652 1.455-1.457 1.455H7.433a1.456 1.456 0 0 1-1.457-1.455v-3.726z" fill="red"/>
        <path d="M28.438 21.532h-1.372v-.395c0-.807-.332-1.538-.867-2.065a.586.586 0 0 0-.531-.835h-2.94a.587.587 0 0 0-.552.782 2.892 2.892 0 0 0-.922 2.118v.395h-1.47v-2.059c0-1.296-.668-2.439-1.677-3.106l.062-.034c.95-.529 1.437-1.405 1.446-2.604V7.641c0-1.842-.727-3.353-2.103-4.37-1.222-.903-2.9-1.38-4.853-1.38h-.502c-1.954 0-3.632.477-4.853 1.38-1.376 1.017-2.103 2.528-2.103 4.37V13.724c.008 1.196.492 2.07 1.438 2.599l.075.04a3.72 3.72 0 0 0-1.682 3.11v2.059H2.388a.586.586 0 1 0 0 1.172h.24v8.601c0 .324.262.586.586.586h24.397a.586.586 0 0 0 .587-.586v-8.601h.24a.586.586 0 1 0 0-1.172zm-6.01-.395a1.732 1.732 0 0 1 3.464 0v.395h-3.464v-.395zm-16.053-7.42V7.64c0-4.248 4.426-4.578 5.782-4.578h.502c1.356 0 5.782.33 5.782 4.578v6.079c-.008 1.054-.41 2.03-3.277 2.03h-.903l-.102-.739c1.99-.667 3.079-2.313 3.079-4.688V7.59a.586.586 0 0 0-.587-.586h-1.665l-.591-1.157a.587.587 0 0 0-1.046 0l-.591 1.157H8.165a.586.586 0 0 0-.587.586v2.733c0 2.375 1.088 4.02 3.08 4.688l-.103.738-.917-.003c-2.856-.012-3.256-.983-3.263-2.03zm5.273 2.699.242-1.748a.586.586 0 0 0-.447-.65c-1.786-.42-2.691-1.663-2.691-3.695V8.176h4.365c.22 0 .422-.123.522-.32l.233-.454.232.454c.1.197.302.32.523.32h1.437v2.147c0 2.032-.905 3.274-2.69 3.694a.586.586 0 0 0-.447.65l.242 1.749c.024.178.128.33.273.418a1.15 1.15 0 0 1-2.068 0 .585.585 0 0 0 .274-.418zm-5.442 3.057a2.558 2.558 0 0 1 2.559-2.552h1.396a2.325 2.325 0 0 0 4.494 0h1.396a2.558 2.558 0 0 1 2.559 2.552v2.059h-1.697v-1.35a.586.586 0 0 0-1.174 0v1.35H9.077v-1.35a.586.586 0 0 0-1.174 0v1.35H6.206v-2.059zM27.025 30.72H3.8v-8.015h23.224v8.015z" fill="#282828"/>
        <path d="M13.377 12.872a.585.585 0 1 0-.83-.829.198.198 0 0 1-.279 0 .587.587 0 0 0-.83.83c.268.266.619.4.97.4.35 0 .702-.134.969-.4zM14.25 10.492a.586.586 0 0 0 .588-.586v-.227a.586.586 0 0 0-1.174 0v.227c0 .323.263.585.587.585zM10.564 9.093a.586.586 0 0 0-.586.586v.227a.586.586 0 0 0 1.173 0v-.227a.586.586 0 0 0-.587-.586z" fill="#282828"/>
    </g>
    <defs>
        <clipPath id="a">
            <path fill="#fff" transform="translate(.823 .89)" d="M0 0h29.134v32H0z"/>
        </clipPath>
    </defs>
</svg>
