<svg width="40" height="33" viewBox="0 0 40 33" fill="none" xmlns="http://www.w3.org/2000/svg">
    <g clip-path="url(#a)">
        <path d="M36.262 1.39H3.096a2.527 2.527 0 0 0-2.52 2.53V26.61a2.527 2.527 0 0 0 2.52 2.529h9.653v1.823H9.053a.748.748 0 0 0-.746.749c0 .413.334.749.746.749h21.251a.747.747 0 0 0 .746-.749.747.747 0 0 0-.746-.749h-3.696V29.14h9.654c1.39 0 2.52-1.135 2.52-2.529V3.919a2.527 2.527 0 0 0-2.52-2.528zM25.116 30.964H14.242V29.14h10.873v1.823zm12.173-4.352a1.03 1.03 0 0 1-1.027 1.031H3.096a1.03 1.03 0 0 1-1.028-1.031V3.919a1.03 1.03 0 0 1 1.028-1.03h33.166a1.03 1.03 0 0 1 1.027 1.03v22.692z" fill="#282828"/>
        <path d="m30.165 17.87-4.111 4.112-3.045-3.046a.761.761 0 0 0-1.074 0l-4.606 4.667v2.155l5.17-5.17 2.504 2.467-2.855 2.855h2.094l6.433-6.433 4.987 4.964v-2.147l-4.423-4.424a.761.761 0 0 0-1.074 0z" fill="#000"/>
        <circle cx="17.045" cy="14.32" fill="red" r="2.095"/>
        <path d="M17.045 17.462a3.143 3.143 0 1 0 0-6.286 3.143 3.143 0 0 0 0 6.286zm0-4.819a1.675 1.675 0 1 1-1.666 1.676 1.676 1.676 0 0 1 1.666-1.665v-.01z" fill="#000"/>
    </g>
    <defs>
        <clipPath id="a">
            <path fill="#fff" transform="translate(.188 .89)" d="M0 0h38.982v32H0z"/>
        </clipPath>
    </defs>
</svg>
