<svg width="40" height="33" viewBox="0 0 40 33" fill="none" xmlns="http://www.w3.org/2000/svg">
    <g clip-path="url(#a)">
        <path d="M36.91 1.39H3.744a2.527 2.527 0 0 0-2.52 2.53V26.61a2.527 2.527 0 0 0 2.52 2.529h9.654v1.823H9.7a.748.748 0 0 0-.746.749c0 .413.334.749.746.749h21.252a.747.747 0 0 0 .746-.749.748.748 0 0 0-.747-.749h-3.696V29.14h9.654c1.39 0 2.52-1.135 2.52-2.529V3.919a2.527 2.527 0 0 0-2.52-2.528zM25.764 30.964H14.89V29.14h10.874v1.823zm12.174-4.352a1.03 1.03 0 0 1-1.028 1.031H3.744a1.03 1.03 0 0 1-1.028-1.031V3.919a1.03 1.03 0 0 1 1.028-1.03H36.91a1.03 1.03 0 0 1 1.028 1.03v22.692z" fill="#282828"/>
        <path d="M4.38 6.402c0-.982.793-1.777 1.771-1.777h5.726c.978 0 1.772.795 1.772 1.777v4.978c0 .982-.794 1.778-1.772 1.778H6.15A1.775 1.775 0 0 1 4.38 11.38V6.402z" fill="red"/>
        <path d="M6.095 10.812c.239.09.506-.03.596-.27l.163-.43h1.14l.16.429a.463.463 0 1 0 .867-.327l-1.098-2.93a.528.528 0 0 0-.495-.343.528.528 0 0 0-.494.341l-1.108 2.93c-.09.24.03.509.269.6zm1.551-1.629h-.441l.221-.586.22.586zM9.483 10.663a.462.462 0 0 0 .326.135h.002c.025 0 .604-.003.835-.007.92-.016 1.587-.815 1.587-1.9 0-1.14-.65-1.906-1.619-1.906h-.81a.462.462 0 0 0-.463.465l.006 2.885c0 .123.05.24.136.328zm1.131-2.75c.644 0 .694.749.694.978 0 .478-.21.964-.678.972a39.65 39.65 0 0 1-.359.004l-.004-1.954h.347z" fill="#fff"/>
    </g>
    <defs>
        <clipPath id="a">
            <path fill="#fff" transform="translate(.836 .89)" d="M0 0h38.982v32H0z"/>
        </clipPath>
    </defs>
</svg>
