<svg width="36" height="32" viewBox="0 0 36 32" fill="none" xmlns="http://www.w3.org/2000/svg">
    <path d="M25.667 10.056H9.48a.922.922 0 0 0-.922.923v11.277c0 .51.413.923.922.923h6.572l1.52 1.618 1.521-1.618h6.573a.922.922 0 0 0 .921-.923V10.98a.922.922 0 0 0-.921-.923z" fill="red"/>
    <path d="M13.054 19.564a.673.673 0 0 0 .868-.39l.263-.693h1.835l.26.69a.673.673 0 1 0 1.26-.475l-1.705-4.524a.774.774 0 0 0-.725-.5h-.001a.774.774 0 0 0-.724.498l-1.72 4.524a.674.674 0 0 0 .389.87zm2.459-2.43h-.815l.41-1.077.405 1.076zM18.334 19.344a.672.672 0 0 0 .475.196h.002c.038 0 .937-.004 1.296-.01 1.402-.025 2.42-1.24 2.42-2.89 0-1.735-.992-2.9-2.468-2.9h-1.26a.672.672 0 0 0-.672.675l.009 4.452c0 .18.072.35.198.477zm1.725-4.257c1.041 0 1.122 1.189 1.122 1.553 0 .758-.339 1.53-1.097 1.543l-.604.006-.006-3.101h.585z" fill="#fff"/>
    <path d="M31.781.925H3.366A3.023 3.023 0 0 0 .35 3.946v24.082a3.023 3.023 0 0 0 3.016 3.021h28.415a3.022 3.022 0 0 0 3.017-3.021V3.947A3.023 3.023 0 0 0 31.781.925zM1.695 3.946c0-.922.75-1.673 1.671-1.673h28.415c.922 0 1.672.75 1.672 1.673v2.015H1.695V3.946zm31.758 24.082c0 .923-.75 1.674-1.672 1.674H3.366c-.921 0-1.67-.751-1.67-1.674V7.308h31.756v20.72z" fill="#282828"/>
    <path d="M24.585 3.859a.678.678 0 0 0-.629-.416.68.68 0 0 0-.629.457.68.68 0 0 0 .228.751c.222.17.533.184.77.034a.68.68 0 0 0 .26-.826zM27.523 3.859a.679.679 0 0 0-.629-.416.679.679 0 0 0-.63.457.68.68 0 0 0 .229.751c.221.17.533.184.77.034a.68.68 0 0 0 .26-.826zM30.46 3.859a.678.678 0 0 0-.67-.414.68.68 0 0 0-.598.487.68.68 0 0 0 .255.732.678.678 0 0 0 .765.013.68.68 0 0 0 .248-.818zM12.998 3.443h-7.69a.673.673 0 0 0 0 1.348h7.69a.673.673 0 0 0 0-1.348zM13.1 28.225h8.947a.673.673 0 0 0 0-1.348H13.1a.673.673 0 0 0 0 1.348z" fill="#282828"/>
</svg>
