<svg width="39" height="32" viewBox="0 0 39 32" fill="none" xmlns="http://www.w3.org/2000/svg">
    <g clip-path="url(#a)">
        <path d="M6.902 9.27c0-.982.793-1.778 1.772-1.778H20.08c.978 0 1.772.796 1.772 1.778v10.208c0 .981-.794 1.777-1.772 1.777H8.674a1.775 1.775 0 0 1-1.772-1.777V9.27z" fill="red"/>
        <path d="M9.667 17.472a.746.746 0 0 0 .963-.435l.262-.694h1.838l.26.692a.747.747 0 1 0 1.397-.527l-1.77-4.727a.851.851 0 0 0-.798-.553h-.002a.85.85 0 0 0-.796.551l-1.787 4.727a.75.75 0 0 0 .433.966zm2.503-2.626h-.712l.357-.946.355.946zM15.134 17.232c.14.14.329.218.526.218h.003c.04 0 .973-.004 1.347-.01 1.483-.027 2.559-1.316 2.559-3.065 0-1.84-1.05-3.075-2.61-3.075H15.65a.745.745 0 0 0-.746.75l.009 4.653c0 .198.08.389.22.529zm1.824-4.435c1.038 0 1.118 1.208 1.118 1.578 0 .77-.338 1.554-1.093 1.567-.136.003-.356.005-.578.006l-.007-3.151h.56z" fill="#fff"/>
        <path d="M37.848.333H1.134a.747.747 0 0 0-.746.749v3.127c0 .413.334.749.746.749h.841v19.258h-.112a.748.748 0 0 0-.747.749c0 .413.334.748.747.748h16.882v1.3a2.396 2.396 0 0 0-1.639 2.272c0 1.319 1.07 2.392 2.385 2.392a2.391 2.391 0 0 0 2.385-2.392 2.396 2.396 0 0 0-1.639-2.273v-1.299H37.12a.747.747 0 0 0 .746-.748.748.748 0 0 0-.746-.75h-.112V4.959h.841a.747.747 0 0 0 .746-.75V1.083a.747.747 0 0 0-.746-.749zM19.491 30.18a.895.895 0 0 1 0-1.79.895.895 0 0 1 0 1.79zm16.023-5.964H3.468V4.958h32.046v19.258zM37.102 3.46H1.88V1.83h35.222v1.63z" fill="#282828"/>
        <path d="M27.783 11.654h4.459a.747.747 0 0 0 .746-.75.747.747 0 0 0-.746-.748h-4.459a.748.748 0 0 0-.746.749c0 .413.334.749.746.749zM27.783 15.123h4.459a.747.747 0 0 0 .746-.749.747.747 0 0 0-.746-.748h-4.459a.748.748 0 0 0-.746.748c0 .414.334.75.746.75zM27.783 18.592h4.459a.747.747 0 0 0 .746-.748.747.747 0 0 0-.746-.75h-4.459a.748.748 0 0 0 0 1.498z" fill="#282828"/>
    </g>
    <defs>
        <clipPath id="a">
            <path fill="#fff" d="M0 0h38.982v32H0z"/>
        </clipPath>
    </defs>
</svg>
