<svg width="40" height="33" viewBox="0 0 40 33" fill="none" xmlns="http://www.w3.org/2000/svg">
    <g clip-path="url(#a)">
        <path d="M36.937.626H3.771a2.527 2.527 0 0 0-2.52 2.529v22.692a2.527 2.527 0 0 0 2.52 2.528h9.654V30.2H9.729a.748.748 0 0 0-.746.749c0 .413.334.748.746.748h21.25a.747.747 0 0 0 .747-.748.747.747 0 0 0-.746-.75h-3.696v-1.823h9.653c1.39 0 2.52-1.134 2.52-2.528V3.155a2.527 2.527 0 0 0-2.52-2.529zM25.791 30.2H14.917v-1.824h10.874V30.2zm12.174-4.352a1.03 1.03 0 0 1-1.028 1.03H3.771a1.03 1.03 0 0 1-1.028-1.03V3.155a1.03 1.03 0 0 1 1.028-1.031h33.166a1.03 1.03 0 0 1 1.028 1.031v22.692z" fill="#282828"/>
        <path d="m23.985 14.249-4.11 4.111-3.046-3.045a.761.761 0 0 0-1.074 0l-4.606 4.667v2.154l5.17-5.17 2.505 2.467-2.856 2.855h2.094l6.433-6.433 4.987 4.964v-2.147L25.06 14.25a.761.761 0 0 0-1.074 0z" fill="#000"/>
        <circle cx="29.151" cy="10.698" fill="red" r="2.095"/>
        <path d="M29.15 13.84a3.143 3.143 0 1 0 .001-6.285 3.143 3.143 0 0 0 0 6.286zm0-4.818a1.676 1.676 0 1 1-1.665 1.676 1.677 1.677 0 0 1 1.666-1.666v-.01z" fill="#000"/>
        <path d="M4.393 25.474h31.805a.673.673 0 0 0 0-1.348H4.393a.673.673 0 0 0 0 1.348z" fill="#282828"/>
    </g>
    <defs>
        <clipPath id="a">
            <path fill="#fff" transform="translate(.863 .126)" d="M0 0h38.982v32H0z"/>
        </clipPath>
    </defs>
</svg>
