<svg width="40" height="33" viewBox="0 0 40 33" fill="none" xmlns="http://www.w3.org/2000/svg">
    <g clip-path="url(#a)">
        <path d="M36.951.626H3.785a2.527 2.527 0 0 0-2.52 2.529v22.692a2.527 2.527 0 0 0 2.52 2.528h9.654V30.2H9.742a.748.748 0 0 0-.746.749c0 .413.334.748.746.748h21.252a.747.747 0 0 0 .746-.748.747.747 0 0 0-.746-.75h-3.697v-1.823h9.654c1.39 0 2.52-1.134 2.52-2.528V3.155a2.527 2.527 0 0 0-2.52-2.529zM25.805 30.2H14.93v-1.824h10.874V30.2zm12.174-4.352a1.03 1.03 0 0 1-1.028 1.03H3.785a1.03 1.03 0 0 1-1.028-1.03V3.155a1.03 1.03 0 0 1 1.028-1.031H36.95a1.03 1.03 0 0 1 1.028 1.031v22.692z" fill="#282828"/>
        <path d="M4.407 25.474h31.805a.673.673 0 0 0 0-1.348H4.407a.673.673 0 0 0 0 1.348z" fill="#282828"/>
        <path d="M35.7 8.698H19.512a.922.922 0 0 0-.922.923v11.277c0 .51.413.923.922.923H31.8l1.52 1.617 1.521-1.617h.858a.922.922 0 0 0 .922-.923V9.621a.922.922 0 0 0-.922-.923z" fill="red"/>
        <path d="M23.086 18.205a.673.673 0 0 0 .868-.39l.264-.692h1.835l.26.69a.673.673 0 1 0 1.259-.476l-1.705-4.523-.007-.018a.774.774 0 0 0-1.443.017l-1.72 4.522a.674.674 0 0 0 .389.87zm2.459-2.43h-.815l.41-1.076.405 1.076zM28.367 17.985a.672.672 0 0 0 .474.196h.003c.038 0 .936-.003 1.296-.01 1.402-.024 2.42-1.24 2.42-2.89 0-1.734-.993-2.9-2.469-2.9h-1.259a.672.672 0 0 0-.673.675l.01 4.453c0 .179.071.35.198.476zm1.724-4.256c1.042 0 1.123 1.188 1.123 1.552 0 .759-.34 1.53-1.098 1.543-.14.002-.375.005-.603.006l-.007-3.1h.585z" fill="#fff"/>
    </g>
    <defs>
        <clipPath id="a">
            <path fill="#fff" transform="translate(.877 .126)" d="M0 0h38.982v32H0z"/>
        </clipPath>
    </defs>
</svg>
