<svg width="40" height="33" viewBox="0 0 40 33" fill="none" xmlns="http://www.w3.org/2000/svg">
    <g clip-path="url(#a)">
        <path d="M3.33 23.394h33.655v3.744H3.33v-3.744zM3.476 4.09h3.731v18.718h-3.73V4.091z" fill="#D8D8D8"/>
        <path d="M36.924 1.39H3.758a2.527 2.527 0 0 0-2.52 2.53V26.61a2.527 2.527 0 0 0 2.52 2.529h9.653v1.823H9.715a.748.748 0 0 0-.746.749c0 .413.334.749.746.749h21.251a.747.747 0 0 0 .746-.749.747.747 0 0 0-.746-.749H27.27V29.14h9.654c1.39 0 2.52-1.135 2.52-2.529V3.919a2.527 2.527 0 0 0-2.52-2.528zM25.778 30.964H14.904V29.14h10.874v1.823zm12.174-4.352a1.03 1.03 0 0 1-1.028 1.031H3.758a1.03 1.03 0 0 1-1.028-1.031V3.919a1.03 1.03 0 0 1 1.028-1.03h33.166a1.03 1.03 0 0 1 1.028 1.03v22.692z" fill="#282828"/>
        <path d="M12.9 8.535c0-.982.793-1.778 1.771-1.778h11.406c.979 0 1.772.796 1.772 1.778v10.208c0 .982-.793 1.778-1.772 1.778H14.671a1.775 1.775 0 0 1-1.772-1.778V8.535z" fill="red"/>
        <path d="M15.664 16.737a.746.746 0 0 0 .963-.435l.262-.694h1.838l.26.692a.747.747 0 1 0 1.396-.527l-1.77-4.727-.008-.02a.85.85 0 0 0-1.588.019l-1.786 4.726a.75.75 0 0 0 .433.966zm2.502-2.626h-.711l.357-.947.354.947zM21.13 16.497c.14.14.33.218.527.218h.003c.04 0 .973-.004 1.346-.01 1.483-.027 2.56-1.316 2.56-3.065 0-1.84-1.05-3.075-2.61-3.075h-1.309a.745.745 0 0 0-.746.75l.01 4.652c0 .2.08.39.22.53zm1.825-4.435c1.038 0 1.118 1.208 1.118 1.578 0 .77-.338 1.554-1.093 1.567-.137.003-.357.005-.579.006l-.006-3.151h.56z" fill="#fff"/>
    </g>
    <defs>
        <clipPath id="a">
            <path fill="#fff" transform="translate(.85 .89)" d="M0 0h38.982v32H0z"/>
        </clipPath>
    </defs>
</svg>
