<svg width="40" height="33" viewBox="0 0 40 33" fill="none" xmlns="http://www.w3.org/2000/svg">
    <g clip-path="url(#a)">
        <path d="M12.562 15.768c0-.884.715-1.6 1.596-1.6h11.624c.882 0 1.596.716 1.596 1.6v8.66c0 .884-.714 1.6-1.596 1.6H14.158a1.598 1.598 0 0 1-1.596-1.6v-8.66z" fill="red"/>
        <path d="m37.532 11-3.786-5.88-.01-.015a7.695 7.695 0 0 0-6.355-3.364H12.56a7.694 7.694 0 0 0-6.365 3.38L2.408 11a2.052 2.052 0 0 0 .228 2.667l3.813 3.71a2.016 2.016 0 0 0 2.37.32v12.353c0 1.11.895 2.012 1.995 2.012h18.312c1.1 0 1.995-.903 1.995-2.012V17.698c.26.143.55.229.851.246a2.017 2.017 0 0 0 1.52-.567l3.812-3.71A2.051 2.051 0 0 0 37.532 11zm-14.47-7.853v1.984c0 1.71-1.387 3.1-3.092 3.1a3.099 3.099 0 0 1-3.091-3.1V3.147h6.182zm13.266 9.511-3.813 3.71a.603.603 0 0 1-.462.172.605.605 0 0 1-.429-.214l-.503-.687V9.503a.702.702 0 1 0-1.402 0V30.05a.6.6 0 0 1-.593.605H10.815a.6.6 0 0 1-.593-.605V9.503a.702.702 0 1 0-1.403 0v6.076l-.51.755a.605.605 0 0 1-.422.206.605.605 0 0 1-.462-.172l-3.813-3.71a.64.64 0 0 1-.065-.837.71.71 0 0 0 .027-.04l3.793-5.89a6.294 6.294 0 0 1 5.192-2.744h2.918v1.984c0 2.484 2.015 4.506 4.493 4.506s4.494-2.022 4.494-4.506V3.147h2.917a6.293 6.293 0 0 1 5.193 2.745l3.792 5.89a.646.646 0 0 0 .028.039.64.64 0 0 1-.066.838z" fill="#282828"/>
        <path d="m18.168 17.229-.008-.02a.806.806 0 0 0-.748-.503h-.001a.806.806 0 0 0-.754.521l-1.786 4.711a.7.7 0 1 0 1.31.5l.274-.72h1.9l.27.718a.702.702 0 1 0 1.312-.496l-1.77-4.711zm-1.18 3.083.421-1.112.418 1.112h-.84zM22.55 16.777h-1.307a.7.7 0 0 0-.7.704l.008 4.637a.704.704 0 0 0 .702.702h.002c.04 0 .973-.004 1.346-.01 1.457-.026 2.514-1.292 2.514-3.011 0-1.808-1.03-3.022-2.565-3.022zm.026 4.627a66.84 66.84 0 0 1-.623.006l-.007-3.227h.604c1.079 0 1.163 1.237 1.163 1.616 0 .789-.352 1.591-1.137 1.605z" fill="#fff"/>
    </g>
    <defs>
        <clipPath id="a">
            <path fill="#fff" transform="translate(.823 .89)" d="M0 0h38.295v32H0z"/>
        </clipPath>
    </defs>
</svg>
