<svg width="40" height="40" viewBox="0 0 40 40" fill="none" xmlns="http://www.w3.org/2000/svg">
    <path d="M15 12.5a1.25 1.25 0 1 1-2.5 0 1.25 1.25 0 0 1 2.5 0zm-1.25 4.375a.625.625 0 0 0-.625.625v10a.625.625 0 1 0 1.25 0v-10a.625.625 0 0 0-.625-.625zm9.375 0a4.989 4.989 0 0 0-3.75 1.698V17.5a.624.624 0 1 0-1.25 0v10a.624.624 0 1 0 1.25 0v-5.625a3.75 3.75 0 0 1 7.5 0V27.5a.624.624 0 1 0 1.25 0v-5.625a5.006 5.006 0 0 0-5-5zM35 6.875v26.25A1.877 1.877 0 0 1 33.125 35H6.875A1.877 1.877 0 0 1 5 33.125V6.875A1.877 1.877 0 0 1 6.875 5h26.25A1.877 1.877 0 0 1 35 6.875zm-1.25 0a.626.626 0 0 0-.625-.625H6.875a.626.626 0 0 0-.625.625v26.25a.626.626 0 0 0 .625.625h26.25a.626.626 0 0 0 .625-.625V6.875z" fill="#fff"/>
</svg>
