<svg width="40" height="40" viewBox="0 0 40 40" fill="none" xmlns="http://www.w3.org/2000/svg">
    <path d="M20 4.375A15.625 15.625 0 1 0 35.625 20 15.643 15.643 0 0 0 20 4.375zm0 30A14.375 14.375 0 1 1 34.375 20 14.391 14.391 0 0 1 20 34.375zm8.545-17.163a.625.625 0 0 1-.841.27 16.907 16.907 0 0 0-15.422.008.625.625 0 0 1-.572-1.112 18.155 18.155 0 0 1 16.565-.007.625.625 0 0 1 .27.841zm-2.317 4.434a.625.625 0 0 1-.84.272 11.865 11.865 0 0 0-10.789.007.625.625 0 0 1-.57-1.112 13.117 13.117 0 0 1 11.926-.008.626.626 0 0 1 .273.84zm-2.314 4.427a.626.626 0 0 1-.839.278 6.873 6.873 0 0 0-6.163.007.625.625 0 0 1-.563-1.116 8.122 8.122 0 0 1 7.286-.008.624.624 0 0 1 .279.838z" fill="#fff"/>
</svg>
