<svg width="40" height="40" viewBox="0 0 40 40" fill="none" xmlns="http://www.w3.org/2000/svg">
    <path d="M38.077 11.01a.625.625 0 0 0-.577-.385h-5.125a6.89 6.89 0 0 0-6.038-3.75 6.925 6.925 0 0 0-6.962 6.875l-.002 1.745C12.486 14.03 6.752 8.367 6.693 8.308a.625.625 0 0 0-1.057.33c-1.331 7.322.855 12.206 2.924 15.014a16.166 16.166 0 0 0 4.282 4.043c-2.455 3.178-6.765 4.828-6.81 4.845a.626.626 0 0 0-.301.932c.041.062.435.622 1.49 1.15 1.332.665 3.109 1.003 5.28 1.003 10.773 0 19.761-8.352 20.566-19.057l4.876-4.876a.625.625 0 0 0 .135-.681zm-6.06 4.84a.626.626 0 0 0-.182.401c-.647 10.163-9.14 18.124-19.335 18.124-2.788 0-4.317-.607-5.079-1.073 1.621-.754 4.915-2.554 6.849-5.455a.625.625 0 0 0-.24-.906c-.024-.012-2.39-1.215-4.464-4.03-2.603-3.532-3.57-7.87-2.883-12.907 1.999 1.767 7.167 5.855 13.212 6.862a.625.625 0 0 0 .728-.616l.002-2.5a5.675 5.675 0 0 1 5.697-5.625 5.637 5.637 0 0 1 5.085 3.375.625.625 0 0 0 .573.375h4.011l-3.974 3.974z" fill="#fff"/>
</svg>
