<svg width="40" height="40" viewBox="0 0 40 40" fill="none" xmlns="http://www.w3.org/2000/svg">
    <path d="m25.347 19.48-7.5-5a.625.625 0 0 0-.972.52v10a.626.626 0 0 0 .972.52l7.5-5a.625.625 0 0 0 0-1.04zm-7.222 4.352v-7.664L23.873 20l-5.748 3.832zm17.884-12.769a3.118 3.118 0 0 0-1.886-2.128c-5.28-2.029-13.768-1.998-14.12-1.996-.358-.002-8.846-.033-14.127 1.996a3.118 3.118 0 0 0-1.885 2.128c-.395 1.516-.866 4.298-.866 8.937 0 4.64.47 7.42.866 8.937a3.119 3.119 0 0 0 1.886 2.128c5.28 2.029 13.768 1.998 14.12 1.996h.11c1.075 0 8.996-.067 14.017-1.996a3.118 3.118 0 0 0 1.885-2.128c.395-1.517.866-4.298.866-8.937 0-4.64-.47-7.42-.866-8.937zM34.8 28.622a1.867 1.867 0 0 1-1.124 1.276c-5.058 1.944-13.585 1.915-13.679 1.913-.086 0-8.613.03-13.671-1.913A1.865 1.865 0 0 1 5.2 28.622c-.376-1.446-.825-4.115-.825-8.622s.449-7.176.825-8.622a1.865 1.865 0 0 1 1.125-1.276c5.058-1.944 13.585-1.913 13.679-1.913.085-.001 8.613-.031 13.671 1.913a1.867 1.867 0 0 1 1.125 1.276c.376 1.446.825 4.115.825 8.622s-.449 7.176-.825 8.622z" fill="#fff"/>
</svg>
