<svg width="108" height="37" viewBox="0 0 108 37" fill="none" xmlns="http://www.w3.org/2000/svg">
    <g clip-path="url(#a)">
        <path d="M8.741 13.728a4.422 4.422 0 0 1 1.674 1.902c.402.83.603 1.803.602 2.92 0 1.117-.202 2.09-.602 2.92a4.422 4.422 0 0 1-1.674 1.901 4.535 4.535 0 0 1-2.41.656c-.892 0-1.654-.216-2.286-.65a3.526 3.526 0 0 1-1.348-1.73v7.344H0v-15.79h2.697v2.219A3.487 3.487 0 0 1 4.045 13.7c.632-.424 1.394-.636 2.286-.636.849-.01 1.684.22 2.41.663zm-5.27 2.558c-.529.559-.793 1.316-.793 2.271 0 .938.264 1.687.794 2.249s1.202.842 2.017.84c.841 0 1.517-.273 2.028-.82.511-.548.766-1.305.765-2.272 0-.965-.255-1.722-.765-2.271-.51-.55-1.186-.826-2.028-.83-.815-.005-1.488.273-2.017.833zM13.082 9.068c.307-.274.709-.411 1.206-.41.498 0 .9.139 1.205.415a1.372 1.372 0 0 1 .459 1.07 1.365 1.365 0 0 1-.459 1.053c-.306.277-.708.415-1.205.414-.496 0-.898-.138-1.206-.414a1.353 1.353 0 0 1-.458-1.052 1.384 1.384 0 0 1 .458-1.076zm2.545 4.14v10.694H12.93V13.208h2.697zM26.252 14.192c.912.746 1.483 1.763 1.715 3.05h-2.854c-.093-.527-.37-1.001-.781-1.338-.409-.329-.925-.492-1.55-.492a2.296 2.296 0 0 0-1.788.8c-.478.535-.717 1.316-.717 2.345 0 1.03.239 1.81.717 2.345a2.312 2.312 0 0 0 1.788.802c.625 0 1.142-.164 1.55-.492.413-.338.691-.814.784-1.342h2.85c-.23 1.287-.801 2.304-1.715 3.05-.914.745-2.052 1.118-3.414 1.119a5.604 5.604 0 0 1-2.755-.666 4.666 4.666 0 0 1-1.874-1.9c-.447-.824-.67-1.798-.67-2.921.001-1.123.224-2.097.67-2.92a4.595 4.595 0 0 1 1.874-1.896 5.67 5.67 0 0 1 2.755-.656c1.365-.004 2.504.367 3.415 1.112zM36.073 23.902l-3.5-4.67v4.67h-2.696V9.626h2.697v8.025l3.48-4.434h3.194l-4.456 5.326 4.57 5.365-3.289-.006zM57.2 14.26c.745.804 1.118 1.946 1.118 3.424v6.218h-2.68v-5.905c0-.823-.207-1.457-.621-1.901-.415-.444-.986-.666-1.715-.665-.753 0-1.352.237-1.799.713-.446.476-.67 1.17-.669 2.084v5.674h-2.68v-5.905c0-.823-.207-1.457-.621-1.901-.415-.444-.986-.666-1.715-.665-.752 0-1.352.237-1.799.713-.446.476-.67 1.17-.669 2.084v5.674h-2.686V13.208h2.697v2.026a3.302 3.302 0 0 1 1.33-1.612 3.895 3.895 0 0 1 2.113-.569c.858 0 1.6.206 2.228.618a3.77 3.77 0 0 1 1.425 1.775 4.03 4.03 0 0 1 1.492-1.752 3.977 3.977 0 0 1 2.2-.64c1.287 0 2.303.401 3.05 1.205zM62.507 13.208l2.888 7.256 2.68-7.256h2.963l-6.483 15.79H61.57l2.39-5.407-4.456-10.383h3.002z" fill="#fff"/>
        <path d="M105.237 22.437c-7.756 6.114-15.149 11.006-21.998 14.06-3.383 1.514-7.35-.55-7.759-4.05-.52-4.63-.742-9.289-.662-13.947-.079-4.658.143-9.317.664-13.946.408-3.503 4.374-5.562 7.759-4.053 5.018 2.24 10.33 5.465 15.864 9.434a166.968 166.968 0 0 1 6.138 4.628c2.597 2.052 2.597 5.822-.006 7.874z" fill="red"/>
        <path d="M84.812 13.553a3.462 3.462 0 0 1 1.358 1.717v-2.219h2.68v10.692h-2.68v-2.238a3.51 3.51 0 0 1-1.358 1.73c-.638.433-1.403.649-2.295.649a4.521 4.521 0 0 1-2.41-.657 4.421 4.421 0 0 1-1.674-1.9c-.401-.83-.602-1.804-.602-2.92 0-1.116.2-2.09.602-2.92a4.421 4.421 0 0 1 1.674-1.902 4.524 4.524 0 0 1 2.41-.656c.892-.009 1.657.2 2.295.624zm-3.481 2.568c-.509.552-.764 1.309-.764 2.27-.001.963.254 1.72.764 2.272.51.547 1.186.82 2.028.82.816 0 1.489-.28 2.018-.84.53-.559.794-1.308.793-2.248 0-.952-.264-1.709-.793-2.271-.529-.563-1.201-.842-2.018-.84-.841.004-1.517.283-2.028.837zM99.1 9.935v5.335a3.592 3.592 0 0 0-1.367-1.717c-.632-.424-1.394-.637-2.285-.637a4.525 4.525 0 0 0-2.408.656 4.43 4.43 0 0 0-1.673 1.9c-.402.829-.603 1.802-.603 2.92 0 1.117.201 2.09.603 2.92.36.788.942 1.452 1.673 1.91a4.522 4.522 0 0 0 2.41.656c.892 0 1.654-.216 2.286-.648a3.635 3.635 0 0 0 1.368-1.731v2.239h2.679V11.902A146.68 146.68 0 0 0 99.1 9.935zm-.794 10.707c-.53.56-1.202.84-2.017.84-.841 0-1.517-.273-2.028-.82-.511-.547-.766-1.304-.765-2.271 0-.965.255-1.722.765-2.272.51-.549 1.186-.826 2.028-.83.815 0 1.488.28 2.017.839.53.56.794 1.317.794 2.271 0 .938-.264 1.686-.794 2.247v-.004z" fill="#fff"/>
    </g>
    <defs>
        <clipPath id="a">
            <path fill="#fff" d="M0 0h107.19v37H0z"/>
        </clipPath>
    </defs>
</svg>
